<svg>
  <symbol viewBox="0 0 24 24" id="icon-vk" fill="none" xmlns="http://www.w3.org/2000/svg">
    <g clip-path="url(#clip0_29705_1038)">
      <path fill-rule="evenodd" clip-rule="evenodd" d="M23.45 5.948C23.616 5.402 23.45 5 22.655 5H20.03C19.362 5 19.054 5.347 18.887 5.73C18.887 5.73 17.552 8.926 15.661 11.002C15.049 11.604 14.771 11.795 14.437 11.795C14.27 11.795 14.019 11.604 14.019 11.057V5.948C14.019 5.292 13.835 5 13.279 5H9.151C8.734 5 8.483 5.304 8.483 5.593C8.483 6.214 9.429 6.358 9.526 8.106V11.904C9.526 12.737 9.373 12.888 9.039 12.888C8.149 12.888 5.984 9.677 4.699 6.003C4.45 5.288 4.198 5 3.527 5H0.9C0.15 5 0 5.347 0 5.73C0 6.412 0.89 9.8 4.145 14.281C6.315 17.341 9.37 19 12.153 19C13.822 19 14.028 18.632 14.028 17.997V15.684C14.028 14.947 14.186 14.8 14.715 14.8C15.105 14.8 15.772 14.992 17.33 16.467C19.11 18.216 19.403 19 20.405 19H23.03C23.78 19 24.156 18.632 23.94 17.904C23.702 17.18 22.852 16.129 21.725 14.882C21.113 14.172 20.195 13.407 19.916 13.024C19.527 12.533 19.638 12.314 19.916 11.877C19.916 11.877 23.116 7.451 23.449 5.948H23.45Z" fill="white"/>
    </g>
    <defs>
      <clipPath id="clip0_29705_1038">
        <rect width="48" height="48" fill="#81B3D2"/>
      </clipPath>
    </defs>
  </symbol>
  <symbol viewBox="0 0 24 24" id="icon-telegram" fill="none" xmlns="http://www.w3.org/2000/svg">
    <path d="M22.4391 4.62225L19.2704 19.566C19.0311 20.6205 18.4079 20.883 17.5221 20.3865L12.6936 16.8285L10.3641 19.0695C10.1061 19.3275 9.8909 19.5428 9.39365 19.5428L9.7409 14.6258L18.6891 6.54C19.0784 6.1935 18.6044 6.00075 18.0846 6.348L7.02215 13.314L2.25965 11.823C1.2239 11.4998 1.20515 10.7873 2.47565 10.29L21.1034 3.11325C21.9659 2.79 22.7204 3.30525 22.4391 4.623V4.62225Z" fill="white"/>
  </symbol>
  <symbol viewBox="0 0 24 24" id="icon-youtube" fill="none" xmlns="http://www.w3.org/2000/svg">
    <path d="M19.1813 5H4.81331C3.30618 5 2 6.3 2 7.8V16.1C2 17.7 3.30618 19 4.81331 19H19.1813C20.7889 19 21.9946 17.7 21.9946 16.2V7.8C22.095 6.3 20.7889 5 19.1813 5ZM9.03326 15.4V8.6L15.8656 12L9.03326 15.4Z" fill="white"/>
  </symbol>
  <symbol viewBox="0 0 32 32" id="icon-html-academy" xmlns="http://www.w3.org/2000/svg">
    <path d="M16.1338 2H16.0446L4 3.19062V24.1965L16.0446 31L28 24.1965V3.19062L16.1338 2ZM26.3048 12.2903L16.0446 6.50733V6.42229H15.9554L15.8662 6.33724V6.42229L5.69517 12.2903V4.63636L15.9554 3.61584L26.3048 4.63636V12.2903ZM15.9554 7.78299L26.2156 13.4809L22.2007 15.6921L15.8662 12.1202V13.3109L21.1301 16.2874L20.3271 16.7126L15.8662 14.1613V15.3519L19.2565 17.3079L18.5428 17.7331L15.8662 16.2023V17.393L17.5613 18.3284L15.9554 19.2639L5.78439 13.566L15.9554 7.78299ZM5.69517 14.8416L15.8662 20.6246V21.4751L8.81784 17.478V18.6686L15.9554 22.7507V23.6862L8.81784 19.6891V20.8798L15.9554 24.9619L23.1822 20.7947V16.3724L26.2156 14.6716V23.176L15.9554 29.044L5.69517 23.261V14.8416Z"/>
  </symbol>
  <symbol viewBox="0 0 23 21" id="icon-like" fill="none" xmlns="http://www.w3.org/2000/svg">
    <path opacity="0.3" d="M12.9636 3.78L12.3364 6.825L11.7091 9.45H14.3227H20.8045V11.55C20.8045 11.55 20.8045 11.55 20.8045 11.655L17.7727 18.9H8.36364V8.4L12.9636 3.78ZM2.09091 10.5V18.9V10.5ZM13.8 0L6.9 6.93C6.48182 7.245 6.27273 7.77 6.27273 8.4V18.9C6.27273 20.055 7.21364 21 8.36364 21H17.7727C18.6091 21 19.3409 20.475 19.6545 19.74L22.7909 12.285C22.8955 12.075 22.8955 11.76 22.8955 11.55V9.45H23C23 8.295 22.0591 7.35 20.9091 7.35H14.3227L15.3682 2.52V2.205C15.3682 1.785 15.1591 1.365 14.95 1.05L13.8 0ZM4.18182 8.4H0V21H4.18182V8.4Z" fill="black"/>
  </symbol>
  <svg viewBox="0 0 18 18" id="icon-phone" fill="none" xmlns="http://www.w3.org/2000/svg">
    <path d="M3.6 7.8C5 10.6 7.4 12.9 10.2 14.4L12.4 12.2C12.7 11.9 13.1 11.8 13.4 12C14.5 12.4 15.7 12.6 17 12.6C17.6 12.6 18 13 18 13.6V17C18 17.6 17.6 18 17 18C7.6 18 0 10.4 0 1C0 0.4 0.4 0 1 0H4.5C5.1 0 5.5 0.4 5.5 1C5.5 2.2 5.7 3.4 6.1 4.6C6.2 4.9 6.1 5.3 5.9 5.6L3.6 7.8Z" fill="#010101"/>
  </svg>
  <svg viewBox="0 0 16 12" id="icon-email" fill="none" xmlns="http://www.w3.org/2000/svg">
    <path d="M8 8C7.7 8 7.5 7.9 7 7.7L0 4V11C0 11.5 0.5 12 1 12H15C15.5 12 16 11.5 16 11V4L9 7.7C8.5 7.9 8.3 8 8 8ZM15 0H1C0.5 0 0 0.5 0 1V1.8L8 6L16 1.8V1C16 0.5 15.5 0 15 0Z" fill="black"/>
  </svg>
</svg>
